<?xml version="1.0" standalone="no"?>
<!DOCTYPE svg PUBLIC "-//W3C//DTD SVG 20010904//EN"
 "http://www.w3.org/TR/2001/REC-SVG-20010904/DTD/svg10.dtd">
<svg version="1.0" xmlns="http://www.w3.org/2000/svg"
 width="150.000000pt" height="150.000000pt" viewBox="0 0 150.000000 150.000000"
 preserveAspectRatio="xMidYMid meet">

<g transform="translate(0.000000,150.000000) scale(0.100000,-0.100000)"
fill="#000000" stroke="none">
<path d="M620 1481 c-168 -37 -284 -97 -394 -207 -113 -113 -172 -228 -208
-404 -22 -107 -20 -170 12 -297 42 -164 138 -312 267 -410 232 -176 525 -204
788 -74 248 123 407 381 407 661 0 280 -159 538 -407 661 -156 77 -321 102
-465 70z m299 -37 c255 -62 465 -274 526 -531 26 -107 17 -292 -18 -391 -76
-214 -235 -373 -449 -449 -59 -21 -97 -27 -200 -30 -116 -5 -135 -3 -220 21
-131 38 -208 84 -309 185 -145 146 -199 268 -206 471 -7 169 24 290 105 413
102 155 251 262 433 311 75 20 256 20 338 0z"/>
<path d="M690 1419 c0 -6 -7 -9 -15 -5 -11 4 -15 -1 -15 -17 0 -18 2 -19 10
-7 9 13 11 13 20 0 8 -12 10 -9 10 13 0 15 -2 27 -5 27 -3 0 -5 -5 -5 -11z"/>
<path d="M711 1413 c-1 -16 4 -21 19 -20 12 1 20 8 20 20 0 16 -3 17 -14 8
-11 -9 -15 -9 -19 1 -3 7 -6 3 -6 -9z"/>
<path d="M768 1405 c2 -14 6 -25 7 -25 1 0 5 11 7 25 3 16 1 25 -7 25 -8 0
-10 -9 -7 -25z"/>
<path d="M815 1420 c-3 -5 -1 -10 4 -10 6 0 11 5 11 10 0 6 -2 10 -4 10 -3 0
-8 -4 -11 -10z"/>
<path d="M623 1408 c3 -10 2 -18 -3 -18 -6 0 -10 -5 -10 -11 0 -8 4 -9 13 0 8
6 17 8 20 4 4 -3 7 -2 7 4 0 6 -8 17 -17 24 -15 12 -16 12 -10 -3z"/>
<path d="M850 1400 c0 -18 3 -19 20 -10 22 12 18 30 -6 30 -8 0 -14 -9 -14
-20z"/>
<path d="M580 1398 c0 -9 -5 -20 -12 -24 -6 -4 -8 -3 -4 4 3 6 1 14 -5 17 -7
5 -10 1 -7 -10 4 -23 37 -29 45 -9 3 9 1 20 -6 27 -8 8 -11 7 -11 -5z"/>
<path d="M897 1388 c-6 -22 -5 -22 8 -5 13 18 14 17 18 -5 4 -21 4 -20 6 5 1
33 -24 37 -32 5z"/>
<path d="M800 1392 c0 -4 9 -8 20 -8 11 0 20 4 20 8 0 4 -9 8 -20 8 -11 0 -20
-4 -20 -8z"/>
<path d="M475 1370 c-3 -5 -2 -18 4 -27 7 -14 9 -12 8 10 -2 30 -3 31 -12 17z"/>
<path d="M519 1367 c6 -8 7 -18 3 -22 -4 -5 -1 -5 6 -1 10 6 10 11 1 22 -6 8
-14 14 -16 14 -3 0 0 -6 6 -13z"/>
<path d="M940 1365 c0 -8 2 -15 4 -15 2 0 6 7 10 15 3 8 1 15 -4 15 -6 0 -10
-7 -10 -15z"/>
<path d="M990 1371 c0 -7 -4 -10 -9 -6 -5 3 -12 1 -15 -4 -3 -5 0 -11 8 -14
14 -6 32 21 21 31 -3 3 -5 0 -5 -7z"/>
<path d="M1007 1356 c-9 -24 -9 -28 2 -21 5 3 11 -3 13 -12 3 -13 6 -10 10 9
3 15 2 25 -3 23 -4 -3 -9 0 -11 7 -3 7 -7 5 -11 -6z"/>
<path d="M430 1336 c0 -9 -4 -14 -10 -11 -5 3 -10 2 -10 -4 0 -5 5 -13 10 -16
6 -3 10 -1 10 5 0 7 7 9 16 6 15 -6 15 -4 3 11 -7 10 -15 20 -16 22 -2 2 -3
-3 -3 -13z"/>
<path d="M643 1340 c-287 -52 -501 -326 -479 -615 24 -318 271 -549 586 -549
163 0 298 56 413 171 115 115 171 250 171 413 0 265 -166 487 -421 565 -62 19
-203 27 -270 15z m193 -34 c83 -30 93 -40 71 -64 -24 -27 -22 -88 3 -102 45
-24 16 -30 -150 -30 -141 0 -170 2 -170 14 0 8 9 18 20 21 27 8 29 81 3 101
-25 18 -7 34 70 61 79 27 74 27 153 -1z m-332 -371 l-24 -95 26 -102 c14 -56
26 -107 27 -112 1 -6 -14 -11 -33 -11 -35 0 -35 0 -62 80 l-26 80 -1 -76 -1
-77 -35 -4 c-20 -2 -38 -2 -40 1 -3 2 -5 82 -5 177 l0 172 24 6 c13 3 31 9 40
12 12 5 15 -4 18 -48 l3 -53 13 57 c12 51 17 58 50 72 20 8 40 15 43 15 4 1
-4 -42 -17 -94z m396 70 c0 -22 -4 -24 -57 -27 l-58 -3 -3 -177 -2 -178 -55 0
-55 0 0 205 0 205 115 0 115 0 0 -25z m170 -61 l5 -59 8 48 c9 53 21 63 59 48
l26 -10 -17 -68 -18 -68 29 -100 c15 -55 28 -103 28 -107 0 -5 -18 -8 -39 -8
l-39 0 -19 72 -18 72 -5 -75 -5 -74 -37 -3 -38 -3 0 210 0 210 38 -13 c36 -13
37 -14 42 -72z m-352 -410 c20 -14 22 -23 22 -125 l0 -109 -25 16 c-20 13 -37
15 -78 10 -28 -4 -81 -10 -116 -13 l-64 -6 6 49 c3 27 9 77 13 111 l6 62 62 9
c95 15 149 14 174 -4z m253 0 l36 -6 10 -102 c5 -55 8 -105 5 -110 -4 -8 -33
-6 -175 10 -47 5 -61 3 -77 -11 -20 -18 -20 -17 -20 97 0 109 1 116 23 126 21
11 113 9 198 -4z"/>
<path d="M687 1254 c-4 -4 -7 -29 -7 -56 0 -48 1 -49 28 -46 25 3 27 6 27 53
0 43 -3 50 -20 53 -12 2 -24 0 -28 -4z"/>
<path d="M784 1247 c-3 -8 -4 -32 -2 -53 3 -34 6 -39 28 -39 23 0 25 3 25 50
0 44 -3 50 -23 53 -13 2 -24 -3 -28 -11z"/>
<path d="M1059 1318 c-7 -12 -7 -18 -1 -14 6 3 13 0 15 -6 4 -8 6 -7 6 4 1 9
6 18 13 20 8 3 6 7 -5 11 -11 4 -20 -1 -28 -15z"/>
<path d="M370 1301 c0 -25 12 -32 26 -17 9 10 7 16 -7 24 -16 10 -19 9 -19 -7z"/>
<path d="M1100 1305 c-9 -11 -10 -19 -3 -26 8 -8 11 -6 10 6 -1 10 4 20 12 23
10 3 12 -1 8 -18 -4 -16 -3 -20 5 -12 12 12 4 42 -10 42 -5 0 -15 -7 -22 -15z"/>
<path d="M346 1278 c5 -8 2 -9 -9 -5 -21 8 -22 -6 -1 -23 12 -11 15 -11 12 1
-2 8 3 13 11 11 12 -3 12 0 1 12 -15 19 -24 21 -14 4z"/>
<path d="M1144 1267 l-19 -22 23 19 c24 21 28 16 10 -17 -10 -20 -10 -21 5 -8
10 7 17 19 17 27 0 23 -17 24 -36 1z"/>
<path d="M290 1241 c0 -5 3 -17 6 -25 6 -15 8 -15 19 1 10 13 10 20 2 25 -16
10 -27 10 -27 -1z"/>
<path d="M1179 1233 c-13 -16 -12 -17 4 -4 23 18 34 7 16 -16 -12 -17 -12 -17
5 -1 10 9 15 21 12 27 -10 16 -21 14 -37 -6z"/>
<path d="M254 1208 c-4 -7 -4 -10 1 -6 4 4 15 2 24 -5 14 -11 14 -10 2 6 -16
20 -18 21 -27 5z"/>
<path d="M1216 1201 c-11 -12 -14 -21 -7 -26 6 -3 11 -1 11 5 0 6 4 8 10 5 6
-4 7 1 3 12 -6 16 -5 17 13 3 18 -14 18 -14 5 3 -17 21 -14 21 -35 -2z"/>
<path d="M225 1180 c-3 -5 -4 -14 -1 -19 3 -5 -4 -11 -15 -14 -13 -4 -19 -12
-17 -24 4 -24 36 -29 45 -6 3 10 12 22 20 26 7 4 13 13 13 20 0 7 -4 6 -10 -3
-7 -12 -12 -12 -22 -2 -10 10 -10 15 2 22 9 6 10 10 3 10 -6 0 -15 -4 -18 -10z
m3 -59 c3 -8 -1 -12 -9 -9 -7 2 -15 10 -17 17 -3 8 1 12 9 9 7 -2 15 -10 17
-17z"/>
<path d="M1245 1167 c-20 -12 -19 -13 15 -48 27 -26 39 -32 47 -24 7 8 6 17
-3 30 -8 10 -14 13 -14 7 0 -7 -7 -12 -15 -12 -20 0 -19 16 1 24 9 4 14 9 11
13 -4 3 -13 0 -22 -7 -9 -8 -15 -9 -15 -2 0 6 8 16 18 21 9 6 13 10 7 10 -5
-1 -19 -6 -30 -12z"/>
<path d="M178 1092 c3 -10 1 -13 -6 -8 -7 4 -12 5 -12 2 0 -3 10 -10 21 -17
13 -6 19 -7 15 -1 -3 6 1 12 9 14 10 2 7 6 -9 14 -21 10 -23 9 -18 -4z"/>
<path d="M1310 1075 c-11 -13 -10 -14 4 -9 9 3 16 10 16 15 0 13 -6 11 -20 -6z"/>
<path d="M159 465 c-1 -3 -2 -8 -3 -12 -1 -5 -5 -13 -9 -20 -5 -8 -1 -8 18 0
13 7 20 14 15 15 -6 2 -8 8 -4 13 3 5 0 9 -5 9 -6 0 -12 -2 -12 -5z"/>
<path d="M1315 442 c2 -2 -5 -12 -16 -23 -21 -21 -25 -39 -8 -39 5 0 7 5 4 10
-3 6 -2 10 4 10 15 0 23 -18 9 -22 -6 -2 -8 -10 -4 -17 6 -9 12 -5 22 14 7 14
15 34 16 43 2 9 8 20 13 24 6 4 -2 7 -17 6 -15 -1 -25 -4 -23 -6z m19 -27 c-7
-17 -20 -20 -29 -6 -3 5 3 12 12 14 10 3 19 5 20 6 1 0 0 -6 -3 -14z"/>
<path d="M163 414 c-4 -10 0 -22 10 -29 10 -7 17 -17 17 -23 0 -6 4 -14 10
-17 5 -3 7 0 4 8 -8 21 11 30 26 12 10 -12 10 -18 0 -30 -7 -8 -8 -15 -2 -15
5 0 15 6 21 14 9 11 6 19 -16 37 -15 13 -28 31 -28 39 0 21 -34 25 -42 4z m34
-13 c0 -11 -6 -17 -14 -14 -18 7 -17 33 1 33 8 0 14 -8 13 -19z"/>
<path d="M1275 360 c-4 -6 -12 -7 -18 -3 -8 4 -7 1 1 -9 11 -14 10 -16 -6 -11
-29 7 -35 -12 -9 -33 l22 -19 -19 23 c-21 24 -16 28 17 11 12 -7 19 -8 15 -4
-4 4 0 14 10 22 9 8 11 11 3 7 -11 -5 -13 -3 -8 9 7 19 2 23 -8 7z"/>
<path d="M254 312 c-9 -5 -8 -11 2 -20 8 -7 14 -11 14 -8 0 2 3 11 6 20 6 17
-3 21 -22 8z"/>
<path d="M1195 301 c-3 -5 -1 -12 5 -16 5 -3 10 -11 10 -17 0 -7 -5 -6 -15 2
-16 14 -35 5 -35 -16 0 -24 30 -28 50 -6 17 18 17 22 4 33 -21 17 -8 25 13 8
16 -13 17 -12 4 4 -15 19 -27 22 -36 8z m3 -49 c2 -7 -3 -12 -12 -12 -9 0 -16
7 -16 16 0 17 22 14 28 -4z"/>
<path d="M280 275 c-11 -13 -10 -14 5 -8 15 5 17 3 12 -12 -6 -15 -5 -16 8 -5
9 7 12 16 8 19 -4 4 -11 10 -14 14 -3 4 -12 1 -19 -8z"/>
<path d="M322 248 c-7 -9 -6 -17 3 -25 10 -10 14 -9 19 3 13 33 -1 47 -22 22z"/>
<path d="M1140 241 c0 -7 -5 -9 -11 -6 -6 4 -5 -2 3 -14 7 -12 14 -17 16 -11
2 6 9 7 15 3 7 -4 5 2 -3 13 -8 10 -16 21 -17 23 -2 2 -3 -1 -3 -8z"/>
<path d="M362 228 c-14 -14 -16 -28 -3 -28 5 0 11 9 14 20 6 23 5 24 -11 8z"/>
<path d="M380 217 c0 -19 22 -57 32 -56 10 0 10 2 1 6 -7 2 -13 12 -13 20 0 9
6 13 15 9 8 -3 15 -1 15 4 0 6 -4 10 -9 10 -5 0 -16 3 -25 6 -9 3 -16 4 -16 1z"/>
<path d="M1090 204 c0 -8 -4 -12 -10 -9 -6 4 -7 -1 -3 -12 6 -16 5 -17 -12 -3
-17 14 -17 14 -4 -8 8 -12 15 -18 17 -12 2 6 8 8 13 4 5 -3 9 2 9 11 0 9 5 13
11 9 8 -4 8 0 0 15 -14 25 -21 27 -21 5z"/>
<path d="M436 175 c-8 -23 -8 -27 3 -21 5 4 12 0 14 -6 3 -8 6 -6 6 5 1 9 5
17 10 17 5 0 7 -9 4 -19 -4 -16 -1 -19 16 -14 12 3 21 9 21 14 0 5 -7 6 -15 2
-10 -3 -15 0 -13 8 2 8 -4 14 -12 14 -8 0 -18 4 -21 8 -3 5 -9 1 -13 -8z"/>
<path d="M1004 158 c-3 -4 0 -16 6 -25 10 -16 10 -15 5 3 -4 17 -1 22 12 20
10 0 22 -5 26 -11 5 -6 7 -4 5 4 -4 16 -46 23 -54 9z"/>
<path d="M970 153 c0 -7 -6 -10 -14 -7 -18 7 -28 -9 -20 -31 6 -14 8 -13 22 6
11 17 16 18 23 8 5 -8 9 -9 9 -4 0 6 -5 17 -10 25 -6 9 -10 11 -10 3z"/>
<path d="M547 143 c-4 -3 -7 -13 -7 -22 1 -13 3 -13 11 2 11 19 8 33 -4 20z"/>
<path d="M583 125 c-3 -9 -3 -18 -1 -21 3 -3 8 4 11 16 6 23 -1 27 -10 5z"/>
<path d="M904 128 c3 -9 0 -19 -7 -21 -7 -2 -10 -7 -7 -9 3 -3 13 -3 23 1 16
6 16 8 1 26 -12 16 -15 16 -10 3z"/>
<path d="M510 119 c0 -5 5 -7 10 -4 6 3 10 8 10 11 0 2 -4 4 -10 4 -5 0 -10
-5 -10 -11z"/>
<path d="M620 115 c6 -8 9 -19 5 -25 -3 -5 -4 -10 -1 -10 3 0 10 10 17 21 8
15 8 19 0 15 -6 -4 -11 -2 -11 3 0 6 -5 11 -11 11 -8 0 -8 -4 1 -15z"/>
<path d="M861 108 c16 -32 17 -32 15 -4 0 14 -7 26 -14 26 -10 0 -10 -5 -1
-22z"/>
<path d="M660 106 c0 -8 5 -18 11 -22 13 -8 46 22 35 33 -4 4 -11 1 -16 -7 -7
-10 -10 -11 -10 -2 0 6 -4 12 -10 12 -5 0 -10 -6 -10 -14z"/>
<path d="M721 102 c-14 -27 -14 -28 9 -28 21 0 25 12 11 35 -7 11 -11 10 -20
-7z"/>
<path d="M760 95 c0 -23 3 -27 10 -15 9 13 11 13 20 0 7 -12 10 -8 10 15 0 23
-3 27 -10 15 -9 -13 -11 -13 -20 0 -7 12 -10 8 -10 -15z"/>
<path d="M823 104 c-7 -7 -13 -19 -13 -26 0 -7 5 -5 11 6 9 15 13 16 20 5 5
-8 9 -9 9 -4 0 23 -15 33 -27 19z"/>
</g>
</svg>
